<mxfile host="Electron" modified="2023-11-25T13:19:39.598Z" agent="Mozilla/5.0 (Windows NT 10.0; Win64; x64) AppleWebKit/537.36 (KHTML, like Gecko) draw.io/22.1.2 Chrome/114.0.5735.289 Electron/25.9.4 Safari/537.36" etag="hCPsQjAy0P7Gnht2z0MC" version="22.1.2" type="device">
  <diagram name="第 1 页" id="zez9NUXxs4EF_C6XapfM">
    <mxGraphModel dx="1745" dy="914" grid="1" gridSize="10" guides="1" tooltips="1" connect="1" arrows="1" fold="1" page="1" pageScale="1" pageWidth="827" pageHeight="1169" math="0" shadow="0">
      <root>
        <mxCell id="0" />
        <mxCell id="1" parent="0" />
        <mxCell id="bhc2TfFtWPkJmtFKuhVe-1" value="" style="ellipse;html=1;shape=startState;fillColor=#000000;strokeColor=#ff0000;" vertex="1" parent="1">
          <mxGeometry x="315" y="60" width="30" height="30" as="geometry" />
        </mxCell>
        <mxCell id="bhc2TfFtWPkJmtFKuhVe-2" value="" style="edgeStyle=orthogonalEdgeStyle;html=1;verticalAlign=bottom;endArrow=open;endSize=8;strokeColor=#ff0000;rounded=0;" edge="1" source="bhc2TfFtWPkJmtFKuhVe-1" parent="1">
          <mxGeometry relative="1" as="geometry">
            <mxPoint x="330" y="150" as="targetPoint" />
          </mxGeometry>
        </mxCell>
        <mxCell id="bhc2TfFtWPkJmtFKuhVe-3" value="start" style="text;html=1;align=center;verticalAlign=middle;resizable=0;points=[];autosize=1;strokeColor=none;fillColor=none;" vertex="1" parent="1">
          <mxGeometry x="305" y="40" width="50" height="30" as="geometry" />
        </mxCell>
        <mxCell id="bhc2TfFtWPkJmtFKuhVe-4" value="点击上锁按钮" style="rounded=1;whiteSpace=wrap;html=1;" vertex="1" parent="1">
          <mxGeometry x="270" y="150" width="120" height="60" as="geometry" />
        </mxCell>
        <mxCell id="bhc2TfFtWPkJmtFKuhVe-5" value="弹窗提示密码输入" style="rounded=1;whiteSpace=wrap;html=1;" vertex="1" parent="1">
          <mxGeometry x="270" y="250" width="120" height="60" as="geometry" />
        </mxCell>
        <mxCell id="bhc2TfFtWPkJmtFKuhVe-6" value="" style="endArrow=classic;html=1;rounded=0;exitX=0.5;exitY=1;exitDx=0;exitDy=0;entryX=0.5;entryY=0;entryDx=0;entryDy=0;" edge="1" parent="1" source="bhc2TfFtWPkJmtFKuhVe-4" target="bhc2TfFtWPkJmtFKuhVe-5">
          <mxGeometry width="50" height="50" relative="1" as="geometry">
            <mxPoint x="405" y="250" as="sourcePoint" />
            <mxPoint x="455" y="200" as="targetPoint" />
          </mxGeometry>
        </mxCell>
        <mxCell id="bhc2TfFtWPkJmtFKuhVe-7" value="便签锁定" style="rounded=1;whiteSpace=wrap;html=1;" vertex="1" parent="1">
          <mxGeometry x="270" y="350" width="120" height="60" as="geometry" />
        </mxCell>
        <mxCell id="bhc2TfFtWPkJmtFKuhVe-8" value="" style="endArrow=classic;html=1;rounded=0;exitX=0.5;exitY=1;exitDx=0;exitDy=0;entryX=0.5;entryY=0;entryDx=0;entryDy=0;" edge="1" parent="1">
          <mxGeometry width="50" height="50" relative="1" as="geometry">
            <mxPoint x="329.83000000000004" y="310" as="sourcePoint" />
            <mxPoint x="329.83000000000004" y="350" as="targetPoint" />
          </mxGeometry>
        </mxCell>
        <mxCell id="bhc2TfFtWPkJmtFKuhVe-9" value="" style="ellipse;html=1;shape=endState;fillColor=#000000;strokeColor=#ff0000;" vertex="1" parent="1">
          <mxGeometry x="315" y="450" width="30" height="30" as="geometry" />
        </mxCell>
        <mxCell id="bhc2TfFtWPkJmtFKuhVe-10" value="" style="endArrow=classic;html=1;rounded=0;exitX=0.5;exitY=1;exitDx=0;exitDy=0;entryX=0.5;entryY=0;entryDx=0;entryDy=0;" edge="1" parent="1" source="bhc2TfFtWPkJmtFKuhVe-7" target="bhc2TfFtWPkJmtFKuhVe-9">
          <mxGeometry width="50" height="50" relative="1" as="geometry">
            <mxPoint x="335" y="540" as="sourcePoint" />
            <mxPoint x="385" y="490" as="targetPoint" />
          </mxGeometry>
        </mxCell>
        <mxCell id="bhc2TfFtWPkJmtFKuhVe-11" value="" style="ellipse;html=1;shape=startState;fillColor=#000000;strokeColor=#ff0000;" vertex="1" parent="1">
          <mxGeometry x="560" y="60" width="30" height="30" as="geometry" />
        </mxCell>
        <mxCell id="bhc2TfFtWPkJmtFKuhVe-12" value="" style="edgeStyle=orthogonalEdgeStyle;html=1;verticalAlign=bottom;endArrow=open;endSize=8;strokeColor=#ff0000;rounded=0;" edge="1" parent="1" source="bhc2TfFtWPkJmtFKuhVe-11">
          <mxGeometry relative="1" as="geometry">
            <mxPoint x="575" y="150" as="targetPoint" />
          </mxGeometry>
        </mxCell>
        <mxCell id="bhc2TfFtWPkJmtFKuhVe-13" value="start" style="text;html=1;align=center;verticalAlign=middle;resizable=0;points=[];autosize=1;strokeColor=none;fillColor=none;" vertex="1" parent="1">
          <mxGeometry x="550" y="40" width="50" height="30" as="geometry" />
        </mxCell>
        <mxCell id="bhc2TfFtWPkJmtFKuhVe-14" value="点击锁定的便签" style="rounded=1;whiteSpace=wrap;html=1;" vertex="1" parent="1">
          <mxGeometry x="515" y="150" width="120" height="60" as="geometry" />
        </mxCell>
        <mxCell id="bhc2TfFtWPkJmtFKuhVe-15" value="弹窗提示密码输入" style="rounded=1;whiteSpace=wrap;html=1;" vertex="1" parent="1">
          <mxGeometry x="515" y="250" width="120" height="60" as="geometry" />
        </mxCell>
        <mxCell id="bhc2TfFtWPkJmtFKuhVe-16" value="" style="endArrow=classic;html=1;rounded=0;exitX=0.5;exitY=1;exitDx=0;exitDy=0;entryX=0.5;entryY=0;entryDx=0;entryDy=0;" edge="1" parent="1" source="bhc2TfFtWPkJmtFKuhVe-14" target="bhc2TfFtWPkJmtFKuhVe-15">
          <mxGeometry width="50" height="50" relative="1" as="geometry">
            <mxPoint x="720" y="320" as="sourcePoint" />
            <mxPoint x="770" y="270" as="targetPoint" />
          </mxGeometry>
        </mxCell>
        <mxCell id="bhc2TfFtWPkJmtFKuhVe-19" value="" style="endArrow=classic;html=1;rounded=0;exitX=0.5;exitY=1;exitDx=0;exitDy=0;entryX=0.5;entryY=0;entryDx=0;entryDy=0;" edge="1" parent="1" source="bhc2TfFtWPkJmtFKuhVe-15" target="bhc2TfFtWPkJmtFKuhVe-45">
          <mxGeometry width="50" height="50" relative="1" as="geometry">
            <mxPoint x="650" y="360" as="sourcePoint" />
            <mxPoint x="580" y="410" as="targetPoint" />
          </mxGeometry>
        </mxCell>
        <mxCell id="bhc2TfFtWPkJmtFKuhVe-28" value="便签解锁" style="rounded=1;whiteSpace=wrap;html=1;" vertex="1" parent="1">
          <mxGeometry x="592.5" y="710" width="120" height="60" as="geometry" />
        </mxCell>
        <mxCell id="bhc2TfFtWPkJmtFKuhVe-30" value="" style="endArrow=classic;html=1;rounded=0;exitX=0.5;exitY=1;exitDx=0;exitDy=0;entryX=0.5;entryY=0;entryDx=0;entryDy=0;" edge="1" parent="1" source="bhc2TfFtWPkJmtFKuhVe-28" target="bhc2TfFtWPkJmtFKuhVe-31">
          <mxGeometry width="50" height="50" relative="1" as="geometry">
            <mxPoint x="617.5" y="890" as="sourcePoint" />
            <mxPoint x="652.5" y="840" as="targetPoint" />
          </mxGeometry>
        </mxCell>
        <mxCell id="bhc2TfFtWPkJmtFKuhVe-31" value="" style="ellipse;html=1;shape=endState;fillColor=#000000;strokeColor=#ff0000;" vertex="1" parent="1">
          <mxGeometry x="560" y="870" width="30" height="30" as="geometry" />
        </mxCell>
        <mxCell id="bhc2TfFtWPkJmtFKuhVe-32" value="" style="line;strokeWidth=4;html=1;perimeter=backbonePerimeter;points=[];outlineConnect=0;" vertex="1" parent="1">
          <mxGeometry x="487.5" y="520" width="160" height="10" as="geometry" />
        </mxCell>
        <mxCell id="bhc2TfFtWPkJmtFKuhVe-34" value="" style="endArrow=classic;html=1;rounded=0;entryX=0.506;entryY=0.044;entryDx=0;entryDy=0;entryPerimeter=0;exitX=0.556;exitY=0.614;exitDx=0;exitDy=0;exitPerimeter=0;" edge="1" parent="1" source="bhc2TfFtWPkJmtFKuhVe-32" target="bhc2TfFtWPkJmtFKuhVe-35">
          <mxGeometry width="50" height="50" relative="1" as="geometry">
            <mxPoint x="582.5" y="540" as="sourcePoint" />
            <mxPoint x="572.5" y="560" as="targetPoint" />
          </mxGeometry>
        </mxCell>
        <mxCell id="bhc2TfFtWPkJmtFKuhVe-35" value="正确密码输入" style="rounded=1;whiteSpace=wrap;html=1;" vertex="1" parent="1">
          <mxGeometry x="592.5" y="580" width="120" height="60" as="geometry" />
        </mxCell>
        <mxCell id="bhc2TfFtWPkJmtFKuhVe-36" value="密码" style="rounded=0;whiteSpace=wrap;html=1;" vertex="1" parent="1">
          <mxGeometry x="647.5" y="310" width="120" height="60" as="geometry" />
        </mxCell>
        <mxCell id="bhc2TfFtWPkJmtFKuhVe-37" value="" style="endArrow=classic;html=1;rounded=0;exitX=1;exitY=0.5;exitDx=0;exitDy=0;entryX=0.5;entryY=0;entryDx=0;entryDy=0;" edge="1" parent="1" source="bhc2TfFtWPkJmtFKuhVe-15" target="bhc2TfFtWPkJmtFKuhVe-36">
          <mxGeometry width="50" height="50" relative="1" as="geometry">
            <mxPoint x="670" y="300" as="sourcePoint" />
            <mxPoint x="720" y="250" as="targetPoint" />
          </mxGeometry>
        </mxCell>
        <mxCell id="bhc2TfFtWPkJmtFKuhVe-38" value="" style="endArrow=classic;html=1;rounded=0;exitX=0.5;exitY=1;exitDx=0;exitDy=0;entryX=0.5;entryY=0;entryDx=0;entryDy=0;" edge="1" parent="1" source="bhc2TfFtWPkJmtFKuhVe-36" target="bhc2TfFtWPkJmtFKuhVe-45">
          <mxGeometry width="50" height="50" relative="1" as="geometry">
            <mxPoint x="750" y="470" as="sourcePoint" />
            <mxPoint x="570" y="430" as="targetPoint" />
          </mxGeometry>
        </mxCell>
        <mxCell id="bhc2TfFtWPkJmtFKuhVe-40" value="设置的密码" style="rounded=0;whiteSpace=wrap;html=1;" vertex="1" parent="1">
          <mxGeometry x="120" y="300" width="120" height="60" as="geometry" />
        </mxCell>
        <mxCell id="bhc2TfFtWPkJmtFKuhVe-41" value="" style="endArrow=classic;html=1;rounded=0;exitX=0;exitY=0.5;exitDx=0;exitDy=0;entryX=0.5;entryY=0;entryDx=0;entryDy=0;" edge="1" parent="1" source="bhc2TfFtWPkJmtFKuhVe-5" target="bhc2TfFtWPkJmtFKuhVe-40">
          <mxGeometry width="50" height="50" relative="1" as="geometry">
            <mxPoint x="160" y="490" as="sourcePoint" />
            <mxPoint x="210" y="440" as="targetPoint" />
          </mxGeometry>
        </mxCell>
        <mxCell id="bhc2TfFtWPkJmtFKuhVe-42" value="" style="endArrow=classic;html=1;rounded=0;exitX=0.5;exitY=1;exitDx=0;exitDy=0;entryX=0;entryY=0.5;entryDx=0;entryDy=0;" edge="1" parent="1" source="bhc2TfFtWPkJmtFKuhVe-40" target="bhc2TfFtWPkJmtFKuhVe-7">
          <mxGeometry width="50" height="50" relative="1" as="geometry">
            <mxPoint x="120" y="510" as="sourcePoint" />
            <mxPoint x="170" y="460" as="targetPoint" />
          </mxGeometry>
        </mxCell>
        <mxCell id="bhc2TfFtWPkJmtFKuhVe-45" value="密码验证" style="rhombus;whiteSpace=wrap;html=1;" vertex="1" parent="1">
          <mxGeometry x="535" y="425" width="80" height="80" as="geometry" />
        </mxCell>
        <mxCell id="bhc2TfFtWPkJmtFKuhVe-46" value="" style="endArrow=classic;html=1;rounded=0;exitX=0.5;exitY=1;exitDx=0;exitDy=0;" edge="1" parent="1" source="bhc2TfFtWPkJmtFKuhVe-45" target="bhc2TfFtWPkJmtFKuhVe-32">
          <mxGeometry width="50" height="50" relative="1" as="geometry">
            <mxPoint x="660" y="510" as="sourcePoint" />
            <mxPoint x="710" y="460" as="targetPoint" />
          </mxGeometry>
        </mxCell>
        <mxCell id="bhc2TfFtWPkJmtFKuhVe-47" value="" style="endArrow=classic;html=1;rounded=0;exitX=0.5;exitY=1;exitDx=0;exitDy=0;" edge="1" parent="1" source="bhc2TfFtWPkJmtFKuhVe-35" target="bhc2TfFtWPkJmtFKuhVe-28">
          <mxGeometry width="50" height="50" relative="1" as="geometry">
            <mxPoint x="780" y="710" as="sourcePoint" />
            <mxPoint x="830" y="660" as="targetPoint" />
          </mxGeometry>
        </mxCell>
        <mxCell id="bhc2TfFtWPkJmtFKuhVe-48" value="错误密码输入" style="rounded=1;whiteSpace=wrap;html=1;" vertex="1" parent="1">
          <mxGeometry x="440" y="580" width="120" height="60" as="geometry" />
        </mxCell>
        <mxCell id="bhc2TfFtWPkJmtFKuhVe-49" value="弹窗提示" style="rounded=1;whiteSpace=wrap;html=1;" vertex="1" parent="1">
          <mxGeometry x="440" y="710" width="120" height="60" as="geometry" />
        </mxCell>
        <mxCell id="bhc2TfFtWPkJmtFKuhVe-50" value="" style="endArrow=classic;html=1;rounded=0;entryX=0.5;entryY=0;entryDx=0;entryDy=0;exitX=0.543;exitY=0.486;exitDx=0;exitDy=0;exitPerimeter=0;" edge="1" parent="1" source="bhc2TfFtWPkJmtFKuhVe-32" target="bhc2TfFtWPkJmtFKuhVe-48">
          <mxGeometry width="50" height="50" relative="1" as="geometry">
            <mxPoint x="410" y="700" as="sourcePoint" />
            <mxPoint x="460" y="650" as="targetPoint" />
          </mxGeometry>
        </mxCell>
        <mxCell id="bhc2TfFtWPkJmtFKuhVe-51" value="" style="endArrow=classic;html=1;rounded=0;exitX=0.5;exitY=1;exitDx=0;exitDy=0;entryX=0.5;entryY=0;entryDx=0;entryDy=0;" edge="1" parent="1" source="bhc2TfFtWPkJmtFKuhVe-48" target="bhc2TfFtWPkJmtFKuhVe-49">
          <mxGeometry width="50" height="50" relative="1" as="geometry">
            <mxPoint x="220" y="710" as="sourcePoint" />
            <mxPoint x="270" y="660" as="targetPoint" />
          </mxGeometry>
        </mxCell>
        <mxCell id="bhc2TfFtWPkJmtFKuhVe-52" value="" style="endArrow=classic;html=1;rounded=0;exitX=0.5;exitY=1;exitDx=0;exitDy=0;entryX=0.5;entryY=0;entryDx=0;entryDy=0;" edge="1" parent="1" source="bhc2TfFtWPkJmtFKuhVe-49" target="bhc2TfFtWPkJmtFKuhVe-31">
          <mxGeometry width="50" height="50" relative="1" as="geometry">
            <mxPoint x="420" y="870" as="sourcePoint" />
            <mxPoint x="470" y="820" as="targetPoint" />
          </mxGeometry>
        </mxCell>
      </root>
    </mxGraphModel>
  </diagram>
</mxfile>
